<svg version="1.1" id="Layer_1" xmlns="http://www.w3.org/2000/svg" xmlns:xlink="http://www.w3.org/1999/xlink" x="0px" y="0px"
	 width="100%" viewBox="0 0 900 303" enable-background="new 0 0 900 303" xml:space="preserve">
<path fill="#FFFFFF" opacity="1.000000" stroke="none" 
	d="
M636.000000,304.000000 
	C424.000000,304.000000 212.500000,304.000000 1.000000,304.000000 
	C1.000000,203.000000 1.000000,102.000000 1.000000,1.000000 
	C301.000000,1.000000 601.000000,1.000000 901.000000,1.000000 
	C901.000000,102.000000 901.000000,203.000000 901.000000,304.000000 
	C812.833313,304.000000 724.666687,304.000000 636.000000,304.000000 
M535.001404,219.487427 
	C535.001404,197.487762 535.001404,175.488113 535.001404,152.099365 
	C537.319702,155.367447 538.692200,157.387146 540.149963,159.343307 
	C549.421387,171.784485 558.155212,184.682922 568.163513,196.501419 
	C576.923950,206.846390 589.439758,203.977432 596.475525,195.537827 
	C603.274902,187.381790 608.874451,178.231735 615.108704,169.596039 
	C619.074158,164.103119 623.235840,158.751938 627.998596,152.421341 
	C627.998596,155.265823 627.998535,156.884491 627.998596,158.503159 
	C627.999146,181.330261 627.959229,204.157486 628.020569,226.984421 
	C628.044922,236.037766 630.864441,240.333206 638.013000,241.776382 
	C641.880554,242.557190 645.916809,242.888580 649.864563,242.808868 
	C659.033203,242.623688 663.165833,239.618820 664.771912,232.202042 
	C665.429993,229.162903 665.860229,226.002396 665.843384,222.900085 
	C665.619385,181.633072 665.356262,140.365952 664.922180,99.100777 
	C664.870483,94.188942 662.447815,90.423561 657.189087,88.944702 
	C649.991882,86.920685 642.844177,87.216118 635.794434,89.234077 
	C633.724792,89.826500 631.525330,91.262100 630.200378,92.950737 
	C620.935364,104.758751 611.895752,116.743416 602.760986,128.653824 
	C595.749207,137.796036 588.703857,146.912384 581.428833,156.357758 
	C580.026855,154.449326 578.891174,152.854691 577.706055,151.297684 
	C564.084290,133.400940 550.356873,115.583138 536.896301,97.566040 
	C533.518738,93.045135 529.832520,88.887825 524.201111,88.346985 
	C518.561218,87.805321 512.673706,88.095078 507.096252,89.118683 
	C500.966125,90.243729 498.054443,94.217697 498.043304,100.265442 
	C497.963928,143.420197 497.951416,186.575302 498.069427,229.729874 
	C498.082520,234.523911 499.896027,239.251373 504.894714,240.704758 
	C509.716248,242.106613 514.971924,243.016968 519.944275,242.698181 
	C531.752319,241.941116 534.998291,237.928543 535.001282,225.979462 
	C535.001770,224.146622 535.001404,222.313797 535.001404,219.487427 
M731.057373,133.436768 
	C731.504700,133.229538 731.992737,133.081711 732.393433,132.806564 
	C749.592407,120.995728 766.971069,119.229950 784.669617,131.764374 
	C785.991272,132.700394 787.537720,133.750198 789.056763,133.886215 
	C792.168518,134.164871 796.220459,135.065765 798.291260,133.542877 
	C802.670349,130.322403 806.474426,126.036255 809.702637,121.596985 
	C815.449341,113.694351 813.728027,106.435692 805.689819,100.955025 
	C785.300354,87.052895 763.298279,82.162781 739.225769,89.027634 
	C721.308105,94.137276 705.544617,102.978096 694.205078,118.029541 
	C679.618469,137.390961 676.664917,159.662415 681.318359,182.773392 
	C689.069824,221.271057 724.273682,242.935165 756.960999,244.931351 
	C773.915466,245.966782 789.273499,240.456329 803.505310,231.642105 
	C808.312744,228.664673 813.726868,224.853928 812.652954,218.688858 
	C811.043823,209.451569 806.192627,201.398254 797.779236,196.482483 
	C791.760925,192.966110 786.858337,197.364899 782.489868,200.479599 
	C766.590576,211.815720 742.719482,208.316803 729.196716,195.626236 
	C712.454285,179.914108 712.368042,149.856918 731.057373,133.436768 
M376.515228,207.990128 
	C380.324127,215.820587 383.988007,223.725891 387.979523,231.462143 
	C392.714813,240.640030 403.140015,244.929611 412.564514,241.992813 
	C420.303894,239.581131 423.900116,233.774353 427.230713,226.727737 
	C438.647186,202.573624 450.797028,178.766754 462.606201,154.797409 
	C470.128906,139.528412 477.637207,124.250778 484.958435,108.884796 
	C487.687531,103.156891 486.371094,98.334732 481.198639,94.736824 
	C477.481873,92.151443 473.526672,89.769753 469.388733,87.957199 
	C460.153931,83.912010 454.854614,85.944237 450.607605,95.009125 
	C445.252655,106.438820 440.155304,117.988930 434.907166,129.468979 
	C425.563538,149.907669 416.190125,170.332764 406.502716,191.476028 
	C402.036987,181.681625 397.863220,172.519730 393.682892,163.360825 
	C386.959686,148.630524 380.342529,133.850418 373.466888,119.191582 
	C369.022919,109.717102 364.421387,100.300659 359.450989,91.095497 
	C356.884216,86.341843 352.381500,84.933983 347.221527,86.622810 
	C343.672791,87.784294 340.235321,89.377754 336.895935,91.069885 
	C326.439026,96.368599 324.410278,102.306976 329.488953,112.783073 
	C336.136963,126.496384 342.873474,140.166977 349.612579,153.835892 
	C358.414673,171.689117 367.256531,189.522720 376.515228,207.990128 
M192.552841,64.987465 
	C189.614975,64.987465 186.677124,64.987465 183.339661,64.987465 
	C183.339661,71.564598 183.607101,77.552200 183.180084,83.489868 
	C183.048401,85.320938 181.420364,87.830902 179.792114,88.625381 
	C174.135208,91.385567 168.245392,93.727074 162.288055,95.773293 
	C160.716812,96.312973 157.969925,95.858437 156.817078,94.757034 
	C152.398453,90.535652 148.408798,85.865273 144.204407,81.303169 
	C135.922501,89.546936 128.602310,97.065277 120.994202,104.280006 
	C118.352318,106.785278 118.664841,108.723854 120.810486,110.966034 
	C123.804611,114.094879 126.771492,117.261925 129.942551,120.205208 
	C132.215042,122.314476 132.722916,124.258118 131.344421,127.213135 
	C128.820633,132.623230 126.573914,138.183167 124.577599,143.810455 
	C123.495743,146.860031 121.766182,147.942764 118.662315,147.862564 
	C112.896553,147.713577 107.124191,147.819870 101.377640,147.819870 
	C101.377640,160.279037 101.377640,172.150665 101.377640,184.179611 
	C107.261765,184.179611 112.762054,184.323807 118.249939,184.125275 
	C121.516647,184.007095 123.479225,184.973450 124.652466,188.238495 
	C126.672401,193.859772 128.959091,199.401382 131.453644,204.829453 
	C132.801254,207.761795 132.295441,209.740417 129.970078,211.810333 
	C125.642570,215.662323 121.488525,219.709167 117.402473,223.543350 
	C126.592865,232.742783 135.055679,241.213913 144.012192,250.179230 
	C148.136948,245.881531 152.227249,241.291977 156.729279,237.149963 
	C157.914505,236.059509 160.632858,235.602936 162.200180,236.145828 
	C167.837799,238.098587 173.201843,240.838425 178.833649,242.811676 
	C182.246735,244.007538 183.530960,245.859268 183.398071,249.395462 
	C183.187790,254.991562 183.342056,260.601349 183.342056,266.342957 
	C195.911392,266.342957 207.812180,266.342957 220.012680,266.342957 
	C220.012680,260.372803 220.182907,254.715729 219.946320,249.075714 
	C219.812729,245.891159 220.985916,244.212799 223.916168,243.121353 
	C229.513916,241.036377 235.083252,238.838013 240.514938,236.359238 
	C243.382339,235.050674 245.336945,235.370850 247.501465,237.662766 
	C251.562363,241.962662 255.886002,246.014389 259.716431,249.790802 
	C268.534546,241.035843 277.020142,232.611069 285.668152,224.024994 
	C281.593323,219.920761 277.499420,215.546036 273.114563,211.485489 
	C270.880371,209.416519 270.663666,207.649094 271.921265,204.954926 
	C274.514984,199.398392 276.921661,193.737091 279.044586,187.985733 
	C280.073334,185.198563 281.472748,184.029755 284.471954,184.125778 
	C290.277435,184.311661 296.093079,184.180099 301.974121,184.180099 
	C301.974121,171.962601 301.974121,160.231522 301.974121,147.820358 
	C296.253601,147.820358 290.949280,147.689346 285.655212,147.865891 
	C282.059814,147.985809 279.869995,147.010635 278.640381,143.204163 
	C276.910522,137.849182 274.636383,132.632553 272.160095,127.569466 
	C270.538300,124.253502 271.238739,122.133392 273.801453,119.770065 
	C277.947235,115.946808 281.799683,111.805443 285.270355,108.307938 
	C276.679565,99.706795 268.159760,91.176750 258.977173,81.983139 
	C255.221436,85.989288 251.053604,90.286972 247.068481,94.747887 
	C245.055344,97.001366 243.268143,97.031860 240.585495,95.733482 
	C235.513870,93.278847 230.285660,91.050629 224.934387,89.305038 
	C221.365326,88.140816 219.729050,86.538483 219.934814,82.618172 
	C220.236893,76.863358 220.012634,71.080917 220.012634,64.987457 
	C210.804886,64.987457 202.170715,64.987457 192.552841,64.987465 
M539.000000,174.580612 
	C539.000000,191.647766 539.000000,208.714920 539.000000,225.782074 
	C539.333313,225.780502 539.666687,225.778946 540.000000,225.777374 
	C540.000000,215.843292 540.000000,205.909225 540.000000,195.975143 
	C540.000000,186.056396 540.000000,176.137650 540.000000,166.218903 
	C539.666687,166.222275 539.333313,166.225647 539.000000,166.229004 
	C539.000000,168.691208 539.000000,171.153397 539.000000,174.580612 
z"/>
<path fill="#FF3132" opacity="1.000000" stroke="none" 
	d="
M535.001404,219.984192 
	C535.001404,222.313797 535.001770,224.146622 535.001282,225.979462 
	C534.998291,237.928543 531.752319,241.941116 519.944275,242.698181 
	C514.971924,243.016968 509.716248,242.106613 504.894714,240.704758 
	C499.896027,239.251373 498.082520,234.523911 498.069427,229.729874 
	C497.951416,186.575302 497.963928,143.420197 498.043304,100.265442 
	C498.054443,94.217697 500.966125,90.243729 507.096252,89.118683 
	C512.673706,88.095078 518.561218,87.805321 524.201111,88.346985 
	C529.832520,88.887825 533.518738,93.045135 536.896301,97.566040 
	C550.356873,115.583138 564.084290,133.400940 577.706055,151.297684 
	C578.891174,152.854691 580.026855,154.449326 581.428833,156.357758 
	C588.703857,146.912384 595.749207,137.796036 602.760986,128.653824 
	C611.895752,116.743416 620.935364,104.758751 630.200378,92.950737 
	C631.525330,91.262100 633.724792,89.826500 635.794434,89.234077 
	C642.844177,87.216118 649.991882,86.920685 657.189087,88.944702 
	C662.447815,90.423561 664.870483,94.188942 664.922180,99.100777 
	C665.356262,140.365952 665.619385,181.633072 665.843384,222.900085 
	C665.860229,226.002396 665.429993,229.162903 664.771912,232.202042 
	C663.165833,239.618820 659.033203,242.623688 649.864563,242.808868 
	C645.916809,242.888580 641.880554,242.557190 638.013000,241.776382 
	C630.864441,240.333206 628.044922,236.037766 628.020569,226.984421 
	C627.959229,204.157486 627.999146,181.330261 627.998596,158.503159 
	C627.998535,156.884491 627.998596,155.265823 627.998596,152.421341 
	C623.235840,158.751938 619.074158,164.103119 615.108704,169.596039 
	C608.874451,178.231735 603.274902,187.381790 596.475525,195.537827 
	C589.439758,203.977432 576.923950,206.846390 568.163513,196.501419 
	C558.155212,184.682922 549.421387,171.784485 540.149963,159.343307 
	C538.692200,157.387146 537.319702,155.367447 535.001404,152.099365 
	C535.001404,175.488113 535.001404,197.487762 535.001404,219.984192 
z"/>
<path fill="#FE3132" opacity="1.000000" stroke="none" 
	d="
M730.803833,133.695587 
	C712.368042,149.856918 712.454285,179.914108 729.196716,195.626236 
	C742.719482,208.316803 766.590576,211.815720 782.489868,200.479599 
	C786.858337,197.364899 791.760925,192.966110 797.779236,196.482483 
	C806.192627,201.398254 811.043823,209.451569 812.652954,218.688858 
	C813.726868,224.853928 808.312744,228.664673 803.505310,231.642105 
	C789.273499,240.456329 773.915466,245.966782 756.960999,244.931351 
	C724.273682,242.935165 689.069824,221.271057 681.318359,182.773392 
	C676.664917,159.662415 679.618469,137.390961 694.205078,118.029541 
	C705.544617,102.978096 721.308105,94.137276 739.225769,89.027634 
	C763.298279,82.162781 785.300354,87.052895 805.689819,100.955025 
	C813.728027,106.435692 815.449341,113.694351 809.702637,121.596985 
	C806.474426,126.036255 802.670349,130.322403 798.291260,133.542877 
	C796.220459,135.065765 792.168518,134.164871 789.056763,133.886215 
	C787.537720,133.750198 785.991272,132.700394 784.669617,131.764374 
	C766.971069,119.229950 749.592407,120.995728 732.393433,132.806564 
	C731.992737,133.081711 731.504700,133.229538 730.803833,133.695587 
z"/>
<path fill="#FE3132" opacity="1.000000" stroke="none" 
	d="
M376.298279,207.677444 
	C367.256531,189.522720 358.414673,171.689117 349.612579,153.835892 
	C342.873474,140.166977 336.136963,126.496384 329.488953,112.783073 
	C324.410278,102.306976 326.439026,96.368599 336.895935,91.069885 
	C340.235321,89.377754 343.672791,87.784294 347.221527,86.622810 
	C352.381500,84.933983 356.884216,86.341843 359.450989,91.095497 
	C364.421387,100.300659 369.022919,109.717102 373.466888,119.191582 
	C380.342529,133.850418 386.959686,148.630524 393.682892,163.360825 
	C397.863220,172.519730 402.036987,181.681625 406.502716,191.476028 
	C416.190125,170.332764 425.563538,149.907669 434.907166,129.468979 
	C440.155304,117.988930 445.252655,106.438820 450.607605,95.009125 
	C454.854614,85.944237 460.153931,83.912010 469.388733,87.957199 
	C473.526672,89.769753 477.481873,92.151443 481.198639,94.736824 
	C486.371094,98.334732 487.687531,103.156891 484.958435,108.884796 
	C477.637207,124.250778 470.128906,139.528412 462.606201,154.797409 
	C450.797028,178.766754 438.647186,202.573624 427.230713,226.727737 
	C423.900116,233.774353 420.303894,239.581131 412.564514,241.992813 
	C403.140015,244.929611 392.714813,240.640030 387.979523,231.462143 
	C383.988007,223.725891 380.324127,215.820587 376.298279,207.677444 
z"/>
<path fill="#FF3636" opacity="1.000000" stroke="none" 
	d="
M193.044708,64.987457 
	C202.170715,64.987457 210.804886,64.987457 220.012634,64.987457 
	C220.012634,71.080917 220.236893,76.863358 219.934814,82.618172 
	C219.729050,86.538483 221.365326,88.140816 224.934387,89.305038 
	C230.285660,91.050629 235.513870,93.278847 240.585495,95.733482 
	C243.268143,97.031860 245.055344,97.001366 247.068481,94.747887 
	C251.053604,90.286972 255.221436,85.989288 258.977173,81.983139 
	C268.159760,91.176750 276.679565,99.706795 285.270355,108.307938 
	C281.799683,111.805443 277.947235,115.946808 273.801453,119.770065 
	C271.238739,122.133392 270.538300,124.253502 272.160095,127.569466 
	C274.636383,132.632553 276.910522,137.849182 278.640381,143.204163 
	C279.869995,147.010635 282.059814,147.985809 285.655212,147.865891 
	C290.949280,147.689346 296.253601,147.820358 301.974121,147.820358 
	C301.974121,160.231522 301.974121,171.962601 301.974121,184.180099 
	C296.093079,184.180099 290.277435,184.311661 284.471954,184.125778 
	C281.472748,184.029755 280.073334,185.198563 279.044586,187.985733 
	C276.921661,193.737091 274.514984,199.398392 271.921265,204.954926 
	C270.663666,207.649094 270.880371,209.416519 273.114563,211.485489 
	C277.499420,215.546036 281.593323,219.920761 285.668152,224.024994 
	C277.020142,232.611069 268.534546,241.035843 259.716431,249.790802 
	C255.886002,246.014389 251.562363,241.962662 247.501465,237.662766 
	C245.336945,235.370850 243.382339,235.050674 240.514938,236.359238 
	C235.083252,238.838013 229.513916,241.036377 223.916168,243.121353 
	C220.985916,244.212799 219.812729,245.891159 219.946320,249.075714 
	C220.182907,254.715729 220.012680,260.372803 220.012680,266.342957 
	C207.812180,266.342957 195.911392,266.342957 183.342056,266.342957 
	C183.342056,260.601349 183.187790,254.991562 183.398071,249.395462 
	C183.530960,245.859268 182.246735,244.007538 178.833649,242.811676 
	C173.201843,240.838425 167.837799,238.098587 162.200180,236.145828 
	C160.632858,235.602936 157.914505,236.059509 156.729279,237.149963 
	C152.227249,241.291977 148.136948,245.881531 144.012192,250.179230 
	C135.055679,241.213913 126.592865,232.742783 117.402473,223.543350 
	C121.488525,219.709167 125.642570,215.662323 129.970078,211.810333 
	C132.295441,209.740417 132.801254,207.761795 131.453644,204.829453 
	C128.959091,199.401382 126.672401,193.859772 124.652466,188.238495 
	C123.479225,184.973450 121.516647,184.007095 118.249939,184.125275 
	C112.762054,184.323807 107.261765,184.179611 101.377640,184.179611 
	C101.377640,172.150665 101.377640,160.279037 101.377640,147.819870 
	C107.124191,147.819870 112.896553,147.713577 118.662315,147.862564 
	C121.766182,147.942764 123.495743,146.860031 124.577599,143.810455 
	C126.573914,138.183167 128.820633,132.623230 131.344421,127.213135 
	C132.722916,124.258118 132.215042,122.314476 129.942551,120.205208 
	C126.771492,117.261925 123.804611,114.094879 120.810486,110.966034 
	C118.664841,108.723854 118.352318,106.785278 120.994202,104.280006 
	C128.602310,97.065277 135.922501,89.546936 144.204407,81.303169 
	C148.408798,85.865273 152.398453,90.535652 156.817078,94.757034 
	C157.969925,95.858437 160.716812,96.312973 162.288055,95.773293 
	C168.245392,93.727074 174.135208,91.385567 179.792114,88.625381 
	C181.420364,87.830902 183.048401,85.320938 183.180084,83.489868 
	C183.607101,77.552200 183.339661,71.564598 183.339661,64.987465 
	C186.677124,64.987465 189.614975,64.987465 193.044708,64.987457 
M257.520020,95.901131 
	C256.103302,97.312111 254.688187,98.724693 253.269608,100.133781 
	C247.538635,105.826363 244.155823,106.302437 236.803940,103.007362 
	C231.201950,100.496567 225.480377,98.240654 219.750610,96.030495 
	C214.546814,94.023216 212.093689,90.783508 212.006302,85.133522 
	C211.945358,81.192833 211.994553,77.250435 211.994553,73.269653 
	C204.986725,73.269653 198.565353,73.269653 191.726700,73.269653 
	C191.726700,76.819077 191.720184,80.117050 191.728104,83.414993 
	C191.742798,89.542091 189.205063,93.863762 183.278885,96.158539 
	C176.777039,98.676239 170.393600,101.498436 163.940994,104.145081 
	C159.701538,105.883965 155.676193,105.445976 152.426727,102.132668 
	C149.638474,99.289642 147.212753,96.091064 144.958374,93.439774 
	C139.205170,98.888023 134.455475,103.385948 129.004425,108.548065 
	C131.324707,110.536049 133.601410,112.239670 135.586609,114.233521 
	C141.734024,120.407700 142.140228,123.100906 138.668549,131.148361 
	C136.366653,136.484222 133.960327,141.788788 131.973969,147.243286 
	C129.791336,153.236801 125.566124,155.887482 119.438461,155.973541 
	C116.013458,156.021652 112.587212,155.982178 109.319962,155.982178 
	C109.319962,163.122223 109.319962,169.534561 109.319962,176.146927 
	C112.330177,176.146927 114.986679,176.127869 117.642830,176.150406 
	C126.454376,176.225189 129.468903,178.278107 132.771851,186.405273 
	C134.960953,191.791733 136.971481,197.261063 139.404892,202.535080 
	C141.930267,208.008423 140.819672,212.604980 136.694977,216.588440 
	C134.192200,219.005524 131.384888,221.107285 128.893784,223.199997 
	C134.495804,228.728790 139.167343,233.339279 144.319397,238.423996 
	C146.124100,236.422485 148.117661,234.192612 150.131866,231.981567 
	C154.920380,226.725113 160.359818,225.887985 166.796814,228.995132 
	C171.723541,231.373276 176.855194,233.399582 182.042068,235.148178 
	C188.870804,237.450302 191.856384,242.096191 191.728821,249.092957 
	C191.672180,252.198761 191.719254,255.306442 191.719254,258.513733 
	C198.790710,258.513733 205.192703,258.513733 211.994064,258.513733 
	C211.994064,254.900604 211.983566,251.598816 211.996246,248.297134 
	C212.023682,241.151321 213.769196,238.588501 220.430542,235.809738 
	C226.558014,233.253662 232.684219,230.694275 238.797958,228.105621 
	C243.540131,226.097733 247.810028,226.396744 251.579865,230.293686 
	C254.310760,233.116638 257.213318,235.773514 259.488739,237.972382 
	C264.633636,233.187164 269.356873,228.794159 274.201294,224.288406 
	C271.181152,221.102753 268.250000,218.169754 265.503815,215.072754 
	C262.314178,211.475647 261.898834,207.445770 263.849030,203.020218 
	C266.592072,196.795517 269.207092,190.513107 271.794556,184.221497 
	C274.281219,178.174927 277.300995,176.068298 283.983154,176.000458 
	C287.409943,175.965668 290.837433,175.994370 294.254883,175.994370 
	C294.254883,169.007278 294.254883,162.736572 294.254883,156.003204 
	C290.866974,156.003204 287.733673,155.969543 284.601318,156.010178 
	C278.006775,156.095734 273.617462,153.200592 271.287598,146.884262 
	C269.162231,141.122238 266.733795,135.463348 264.231567,129.851425 
	C261.762604,124.314133 262.451447,119.470390 266.880524,115.304924 
	C269.497253,112.843918 272.257812,110.535873 274.811249,108.284630 
	C269.911987,103.239731 266.065247,99.083015 261.938782,95.225517 
	C261.265320,94.595940 259.356720,95.287567 257.520020,95.901131 
z"/>
<path fill="#FFDFFF" opacity="1.000000" stroke="none" 
	d="
M539.000000,174.098114 
	C539.000000,171.153397 539.000000,168.691208 539.000000,166.229004 
	C539.333313,166.225647 539.666687,166.222275 540.000000,166.218903 
	C540.000000,176.137650 540.000000,186.056396 540.000000,195.975143 
	C540.000000,205.909225 540.000000,215.843292 540.000000,225.777374 
	C539.666687,225.778946 539.333313,225.780502 539.000000,225.782074 
	C539.000000,208.714920 539.000000,191.647766 539.000000,174.098114 
z"/>
<path fill="#FFFCFC" opacity="1.000000" stroke="none" 
	d="
M257.769531,95.634842 
	C259.356720,95.287567 261.265320,94.595940 261.938782,95.225517 
	C266.065247,99.083015 269.911987,103.239731 274.811249,108.284630 
	C272.257812,110.535873 269.497253,112.843918 266.880524,115.304924 
	C262.451447,119.470390 261.762604,124.314133 264.231567,129.851425 
	C266.733795,135.463348 269.162231,141.122238 271.287598,146.884262 
	C273.617462,153.200592 278.006775,156.095734 284.601318,156.010178 
	C287.733673,155.969543 290.866974,156.003204 294.254883,156.003204 
	C294.254883,162.736572 294.254883,169.007278 294.254883,175.994370 
	C290.837433,175.994370 287.409943,175.965668 283.983154,176.000458 
	C277.300995,176.068298 274.281219,178.174927 271.794556,184.221497 
	C269.207092,190.513107 266.592072,196.795517 263.849030,203.020218 
	C261.898834,207.445770 262.314178,211.475647 265.503815,215.072754 
	C268.250000,218.169754 271.181152,221.102753 274.201294,224.288406 
	C269.356873,228.794159 264.633636,233.187164 259.488739,237.972382 
	C257.213318,235.773514 254.310760,233.116638 251.579865,230.293686 
	C247.810028,226.396744 243.540131,226.097733 238.797958,228.105621 
	C232.684219,230.694275 226.558014,233.253662 220.430542,235.809738 
	C213.769196,238.588501 212.023682,241.151321 211.996246,248.297134 
	C211.983566,251.598816 211.994064,254.900604 211.994064,258.513733 
	C205.192703,258.513733 198.790710,258.513733 191.719254,258.513733 
	C191.719254,255.306442 191.672180,252.198761 191.728821,249.092957 
	C191.856384,242.096191 188.870804,237.450302 182.042068,235.148178 
	C176.855194,233.399582 171.723541,231.373276 166.796814,228.995132 
	C160.359818,225.887985 154.920380,226.725113 150.131866,231.981567 
	C148.117661,234.192612 146.124100,236.422485 144.319397,238.423996 
	C139.167343,233.339279 134.495804,228.728790 128.893784,223.199997 
	C131.384888,221.107285 134.192200,219.005524 136.694977,216.588440 
	C140.819672,212.604980 141.930267,208.008423 139.404892,202.535080 
	C136.971481,197.261063 134.960953,191.791733 132.771851,186.405273 
	C129.468903,178.278107 126.454376,176.225189 117.642830,176.150406 
	C114.986679,176.127869 112.330177,176.146927 109.319962,176.146927 
	C109.319962,169.534561 109.319962,163.122223 109.319962,155.982178 
	C112.587212,155.982178 116.013458,156.021652 119.438461,155.973541 
	C125.566124,155.887482 129.791336,153.236801 131.973969,147.243286 
	C133.960327,141.788788 136.366653,136.484222 138.668549,131.148361 
	C142.140228,123.100906 141.734024,120.407700 135.586609,114.233521 
	C133.601410,112.239670 131.324707,110.536049 129.004425,108.548065 
	C134.455475,103.385948 139.205170,98.888023 144.958374,93.439774 
	C147.212753,96.091064 149.638474,99.289642 152.426727,102.132668 
	C155.676193,105.445976 159.701538,105.883965 163.940994,104.145081 
	C170.393600,101.498436 176.777039,98.676239 183.278885,96.158539 
	C189.205063,93.863762 191.742798,89.542091 191.728104,83.414993 
	C191.720184,80.117050 191.726700,76.819077 191.726700,73.269653 
	C198.565353,73.269653 204.986725,73.269653 211.994553,73.269653 
	C211.994553,77.250435 211.945358,81.192833 212.006302,85.133522 
	C212.093689,90.783508 214.546814,94.023216 219.750610,96.030495 
	C225.480377,98.240654 231.201950,100.496567 236.803940,103.007362 
	C244.155823,106.302437 247.538635,105.826363 253.269608,100.133781 
	C254.688187,98.724693 256.103302,97.312111 257.769531,95.634842 
M173.780701,218.831909 
	C192.914551,228.009445 212.092285,228.200424 230.796692,218.059448 
	C257.723755,203.460434 268.784729,169.709457 256.272522,141.733475 
	C243.548477,113.283875 211.160950,99.031929 182.084061,109.687347 
	C158.282242,118.409683 144.441895,135.992935 142.341858,161.101562 
	C140.235886,186.281082 151.533340,205.412262 173.780701,218.831909 
z"/>
<path fill="#FF3737" opacity="1.000000" stroke="none" 
	d="
M173.471313,218.623566 
	C151.533340,205.412262 140.235886,186.281082 142.341858,161.101562 
	C144.441895,135.992935 158.282242,118.409683 182.084061,109.687347 
	C211.160950,99.031929 243.548477,113.283875 256.272522,141.733475 
	C268.784729,169.709457 257.723755,203.460434 230.796692,218.059448 
	C212.092285,228.200424 192.914551,228.009445 173.471313,218.623566 
M251.998032,154.776154 
	C244.573349,126.524513 217.916046,109.078285 191.210464,115.409218 
	C171.096069,120.177628 157.455231,132.580215 152.141922,152.641479 
	C146.787048,172.859772 152.252930,190.433746 167.900314,204.591324 
	C184.097229,219.246124 208.494858,221.518066 227.787445,210.193069 
	C246.980133,198.926712 256.779144,176.923035 251.998032,154.776154 
z"/>
<path fill="#FFFDFD" opacity="1.000000" stroke="none" 
	d="
M252.043274,155.200531 
	C256.779144,176.923035 246.980133,198.926712 227.787445,210.193069 
	C208.494858,221.518066 184.097229,219.246124 167.900314,204.591324 
	C152.252930,190.433746 146.787048,172.859772 152.141922,152.641479 
	C157.455231,132.580215 171.096069,120.177628 191.210464,115.409218 
	C217.916046,109.078285 244.573349,126.524513 252.043274,155.200531 
M217.385773,152.885971 
	C208.383347,161.936020 199.380920,170.986053 190.090073,180.326050 
	C185.134094,174.707825 180.541046,169.507843 175.956436,164.300430 
	C174.124207,162.219299 172.077744,160.941071 169.548233,163.104111 
	C167.077881,165.216568 167.782043,167.472885 169.595428,169.639420 
	C174.929001,176.011597 180.262650,182.383713 185.598343,188.754135 
	C188.030243,191.657639 190.545090,191.727844 193.211304,189.034561 
	C196.954315,185.253540 200.738815,181.513626 204.500473,177.751038 
	C214.022202,168.226944 223.546539,158.705444 233.057053,149.170166 
	C235.295624,146.925781 236.408981,144.362961 233.779938,141.798965 
	C231.071579,139.157639 228.985260,141.232697 227.034729,143.194260 
	C223.986572,146.259659 220.933212,149.319885 217.385773,152.885971 
z"/>
<path fill="#FF3737" opacity="1.000000" stroke="none" 
	d="
M217.633911,152.634140 
	C220.933212,149.319885 223.986572,146.259659 227.034729,143.194260 
	C228.985260,141.232697 231.071579,139.157639 233.779938,141.798965 
	C236.408981,144.362961 235.295624,146.925781 233.057053,149.170166 
	C223.546539,158.705444 214.022202,168.226944 204.500473,177.751038 
	C200.738815,181.513626 196.954315,185.253540 193.211304,189.034561 
	C190.545090,191.727844 188.030243,191.657639 185.598343,188.754135 
	C180.262650,182.383713 174.929001,176.011597 169.595428,169.639420 
	C167.782043,167.472885 167.077881,165.216568 169.548233,163.104111 
	C172.077744,160.941071 174.124207,162.219299 175.956436,164.300430 
	C180.541046,169.507843 185.134094,174.707825 190.090073,180.326050 
	C199.380920,170.986053 208.383347,161.936020 217.633911,152.634140 
z"/>
</svg>