<svg version="1.1" id="Layer_1" xmlns="http://www.w3.org/2000/svg" xmlns:xlink="http://www.w3.org/1999/xlink" x="0px" y="0px"
	 width="100%" viewBox="0 0 1080 1080" enable-background="new 0 0 1080 1080" xml:space="preserve">
<path fill="#FFFFFF" opacity="1.000000" stroke="none" 
	d="
M580.000000,1081.000000 
	C386.688904,1081.000000 193.877838,1081.000000 1.033378,1081.000000 
	C1.033378,721.063782 1.033378,361.127594 1.033378,1.095691 
	C360.894623,1.095691 720.789307,1.095691 1080.842041,1.095691 
	C1080.842041,360.999939 1080.842041,720.999939 1080.842041,1081.000000 
	C914.127136,1081.000000 747.313538,1081.000000 580.000000,1081.000000 
M640.001587,559.500000 
	C640.001587,541.829773 640.001587,524.159485 640.001587,505.106445 
	C642.319214,508.370636 643.690186,510.385010 645.144958,512.336914 
	C654.417053,524.777588 663.137573,537.689026 673.165222,549.489014 
	C681.828308,559.683289 693.834900,557.213135 701.141174,548.912659 
	C708.048828,541.065002 713.613098,532.034241 719.761047,523.518677 
	C723.910278,517.771423 728.047119,512.015259 732.998413,505.139893 
	C732.998413,508.261017 732.998413,509.877716 732.998413,511.494415 
	C732.999023,534.321533 732.781494,557.151611 733.095642,579.974365 
	C733.244629,590.792358 735.554138,592.486938 742.571838,594.509827 
	C746.627502,595.678894 751.097534,595.925232 755.353210,595.778564 
	C764.312378,595.469910 768.192261,592.487915 769.768677,585.211182 
	C770.427063,582.172119 770.860291,579.011963 770.843445,575.909851 
	C770.619629,534.642944 770.354980,493.375854 769.924438,452.110687 
	C769.873108,447.190094 767.449524,443.430786 762.198914,441.947449 
	C755.003662,439.914703 747.854675,440.218964 740.803955,442.229736 
	C738.732971,442.820374 736.528625,444.252167 735.203857,445.940613 
	C725.939453,457.748718 716.901611,469.734406 707.767456,481.645020 
	C700.754272,490.789978 693.706299,499.908295 686.432068,509.352325 
	C685.035278,507.453674 683.898376,505.861389 682.713928,504.305328 
	C669.091614,486.409210 655.367004,468.589661 641.901001,450.576721 
	C638.526062,446.062225 634.851562,441.887970 629.212097,441.351532 
	C623.571838,440.815033 617.686096,441.095215 612.110291,442.119263 
	C605.968994,443.247162 603.054932,447.211487 603.043701,453.250946 
	C602.963501,496.405670 602.951782,539.560730 603.068359,582.715271 
	C603.081299,587.510315 604.884094,592.240784 609.881287,593.698303 
	C614.701172,595.104126 619.956543,596.013733 624.929321,595.699036 
	C636.747864,594.951172 639.998901,590.941711 640.001343,578.994934 
	C640.002563,572.829956 640.001587,566.664978 640.001587,559.500000 
M914.073181,562.434143 
	C911.929077,559.347595 910.101624,555.968506 907.575684,553.234863 
	C902.117188,547.327759 898.973999,546.931274 891.886047,550.788818 
	C888.424805,552.672546 885.359131,555.387146 881.768738,556.911682 
	C863.959717,564.473511 840.927856,558.771606 829.472839,543.210693 
	C818.883362,528.825562 819.656677,503.704865 831.828369,490.624573 
	C845.567139,475.860291 871.318298,470.737305 888.495056,483.907440 
	C890.166626,485.189087 892.127991,486.573395 894.107422,486.861511 
	C897.173218,487.307800 901.258118,488.053925 903.328247,486.527100 
	C907.703735,483.299866 911.503235,479.009766 914.728821,474.567413 
	C920.453857,466.682861 918.709595,459.445251 910.653503,453.945007 
	C890.265808,440.025513 868.256958,435.156189 844.192810,442.033234 
	C826.284973,447.150940 810.526733,455.992004 799.190369,471.055573 
	C784.610413,490.429321 781.666260,512.696777 786.325745,535.799866 
	C794.098145,574.337769 829.352234,595.954346 861.982727,597.931274 
	C878.935059,598.958313 894.320557,593.494080 908.522949,584.634888 
	C918.579895,578.361511 920.007507,572.621155 914.073181,562.434143 
M473.050934,460.459015 
	C470.180908,454.948151 467.448181,449.359863 464.399078,443.949921 
	C461.774109,439.292419 457.369568,438.018555 452.545227,439.520355 
	C448.521851,440.772888 444.648651,442.663147 440.912689,444.653412 
	C431.549500,449.641510 429.606018,455.461670 434.115906,465.034088 
	C437.610291,472.450989 441.412903,479.722076 445.027893,487.082825 
	C460.743164,519.081909 476.414642,551.102539 492.157410,583.088135 
	C497.552216,594.049072 508.870789,598.432312 519.292908,594.339600 
	C526.268188,591.600403 529.156433,586.069397 532.157349,579.808716 
	C543.987549,555.127380 556.294250,530.674500 568.388306,506.119232 
	C575.620911,491.434387 582.855042,476.749420 589.943665,461.994904 
	C592.215881,457.265350 591.538208,451.330109 587.954773,448.824524 
	C583.180359,445.486115 578.118225,442.179596 572.685913,440.248474 
	C564.001160,437.161133 559.747986,439.489349 555.648010,447.908569 
	C554.139954,451.005341 552.764343,454.166840 551.343262,457.305603 
	C543.156799,475.387146 535.023193,493.492889 526.772949,511.545319 
	C521.843872,522.330688 516.734131,533.033447 511.523438,544.162354 
	C502.214325,524.203064 493.101257,504.802704 484.120239,485.341339 
	C480.423157,477.329987 477.010132,469.187561 473.050934,460.459015 
M242.870407,597.636475 
	C244.552811,599.625854 246.235199,601.615173 247.988922,603.688843 
	C253.079041,598.605286 257.387817,594.438660 261.525543,590.108643 
	C263.427856,588.117859 265.053650,587.857727 267.630524,589.100159 
	C272.856903,591.619873 278.239929,593.880066 283.718689,595.786743 
	C287.079956,596.956543 288.541504,598.675537 288.399658,602.278137 
	C288.178955,607.883484 288.341309,613.503906 288.341309,619.379883 
	C300.819061,619.379883 312.714111,619.379883 325.012848,619.379883 
	C325.012848,613.465698 325.214325,607.822937 324.938507,602.203613 
	C324.768402,598.737793 326.204529,597.124023 329.283661,595.998535 
	C334.736908,594.005371 340.130371,591.815308 345.421783,589.426270 
	C348.223816,588.161316 350.246552,588.265808 352.440521,590.629761 
	C356.472809,594.974487 360.779053,599.064941 364.700104,602.990051 
	C373.593414,594.167358 382.092194,585.736145 390.955292,576.943420 
	C387.013855,573.079651 383.131195,568.958130 378.898285,565.234741 
	C376.069946,562.746887 375.492340,560.581299 377.291504,557.093506 
	C379.868225,552.098328 382.058777,546.854126 383.865234,541.529968 
	C384.968536,538.278137 386.528381,537.025208 389.939087,537.164734 
	C395.683838,537.399719 401.445190,537.229126 407.376892,537.229126 
	C407.376892,525.883728 407.301086,515.395203 407.423828,504.909088 
	C407.459900,501.828522 406.118042,500.777008 403.274841,500.805725 
	C398.777832,500.851166 394.277649,500.696838 389.782837,500.801117 
	C386.742889,500.871613 384.969696,499.857574 383.879211,496.763672 
	C381.894745,491.133575 379.577148,485.598022 377.023315,480.200531 
	C375.632935,477.262085 376.126953,475.354980 378.392426,473.215546 
	C382.691467,469.155609 386.764130,464.855988 390.389709,461.201355 
	C381.696747,452.445892 373.284088,443.972748 364.086426,434.708923 
	C360.117340,438.978424 356.090240,443.644012 351.641052,447.864716 
	C350.510315,448.937408 347.790405,449.314758 346.226410,448.775909 
	C340.429169,446.778473 334.874634,444.083099 329.096649,442.020386 
	C326.118469,440.957184 324.846252,439.446564 324.955353,436.234100 
	C325.157166,430.292603 325.013123,424.339386 325.013123,418.252747 
	C312.618500,418.252747 300.720947,418.252747 288.342926,418.252747 
	C288.342926,424.303497 288.186340,430.104614 288.402466,435.891815 
	C288.529236,439.286133 287.171722,440.990601 284.042480,442.112152 
	C278.734070,444.014771 273.482269,446.128906 268.370514,448.506378 
	C265.421539,449.877930 263.307037,449.961975 261.014282,447.301453 
	C257.220520,442.899078 253.105881,438.773193 249.126816,434.531189 
	C241.063553,442.500885 233.727997,449.998077 226.089951,457.173279 
	C223.227585,459.862183 223.728119,461.869598 226.043533,464.233032 
	C229.074051,467.326385 232.007645,470.525177 235.182037,473.463501 
	C237.368271,475.487122 237.622528,477.369690 236.396942,480.072968 
	C233.931015,485.512177 231.654617,491.053009 229.634201,496.672058 
	C228.563202,499.650635 226.942398,500.904907 223.779572,500.816437 
	C217.972397,500.654053 212.157425,500.770172 206.241730,500.770172 
	C206.241730,513.073303 206.241730,524.988159 206.241730,537.230896 
	C212.307724,537.230896 218.148483,536.920166 223.922424,537.404968 
	C225.858139,537.567505 228.436401,539.348877 229.316071,541.097168 
	C232.070038,546.570679 234.041855,552.431335 236.545868,558.039673 
	C237.754852,560.747437 237.337982,562.625305 235.160492,564.617493 
	C230.795059,568.611511 226.635742,572.830811 222.181000,577.161560 
	C229.351639,584.255493 235.861191,590.695374 242.870407,597.636475 
M643.997559,529.536865 
	C643.997559,545.963318 643.997559,562.389771 643.997559,578.816284 
	C644.226746,578.813049 644.455872,578.809875 644.685059,578.806641 
	C644.685059,558.935852 644.685059,539.065002 644.685059,519.194153 
	C644.455872,519.191101 644.226746,519.188049 643.997559,519.184998 
	C643.997559,522.308289 643.997559,525.431580 643.997559,529.536865 
z"/>
<path fill="#FF3132" opacity="1.000000" stroke="none" 
	d="
M640.001587,560.000000 
	C640.001587,566.664978 640.002563,572.829956 640.001343,578.994934 
	C639.998901,590.941711 636.747864,594.951172 624.929321,595.699036 
	C619.956543,596.013733 614.701172,595.104126 609.881287,593.698303 
	C604.884094,592.240784 603.081299,587.510315 603.068359,582.715271 
	C602.951782,539.560730 602.963501,496.405670 603.043701,453.250946 
	C603.054932,447.211487 605.968994,443.247162 612.110291,442.119263 
	C617.686096,441.095215 623.571838,440.815033 629.212097,441.351532 
	C634.851562,441.887970 638.526062,446.062225 641.901001,450.576721 
	C655.367004,468.589661 669.091614,486.409210 682.713928,504.305328 
	C683.898376,505.861389 685.035278,507.453674 686.432068,509.352325 
	C693.706299,499.908295 700.754272,490.789978 707.767456,481.645020 
	C716.901611,469.734406 725.939453,457.748718 735.203857,445.940613 
	C736.528625,444.252167 738.732971,442.820374 740.803955,442.229736 
	C747.854675,440.218964 755.003662,439.914703 762.198914,441.947449 
	C767.449524,443.430786 769.873108,447.190094 769.924438,452.110687 
	C770.354980,493.375854 770.619629,534.642944 770.843445,575.909851 
	C770.860291,579.011963 770.427063,582.172119 769.768677,585.211182 
	C768.192261,592.487915 764.312378,595.469910 755.353210,595.778564 
	C751.097534,595.925232 746.627502,595.678894 742.571838,594.509827 
	C735.554138,592.486938 733.244629,590.792358 733.095642,579.974365 
	C732.781494,557.151611 732.999023,534.321533 732.998413,511.494415 
	C732.998413,509.877716 732.998413,508.261017 732.998413,505.139893 
	C728.047119,512.015259 723.910278,517.771423 719.761047,523.518677 
	C713.613098,532.034241 708.048828,541.065002 701.141174,548.912659 
	C693.834900,557.213135 681.828308,559.683289 673.165222,549.489014 
	C663.137573,537.689026 654.417053,524.777588 645.144958,512.336914 
	C643.690186,510.385010 642.319214,508.370636 640.001587,505.106445 
	C640.001587,524.159485 640.001587,541.829773 640.001587,560.000000 
z"/>
<path fill="#FE3132" opacity="1.000000" stroke="none" 
	d="
M914.307373,562.734009 
	C920.007507,572.621155 918.579895,578.361511 908.522949,584.634888 
	C894.320557,593.494080 878.935059,598.958313 861.982727,597.931274 
	C829.352234,595.954346 794.098145,574.337769 786.325745,535.799866 
	C781.666260,512.696777 784.610413,490.429321 799.190369,471.055573 
	C810.526733,455.992004 826.284973,447.150940 844.192810,442.033234 
	C868.256958,435.156189 890.265808,440.025513 910.653503,453.945007 
	C918.709595,459.445251 920.453857,466.682861 914.728821,474.567413 
	C911.503235,479.009766 907.703735,483.299866 903.328247,486.527100 
	C901.258118,488.053925 897.173218,487.307800 894.107422,486.861511 
	C892.127991,486.573395 890.166626,485.189087 888.495056,483.907440 
	C871.318298,470.737305 845.567139,475.860291 831.828369,490.624573 
	C819.656677,503.704865 818.883362,528.825562 829.472839,543.210693 
	C840.927856,558.771606 863.959717,564.473511 881.768738,556.911682 
	C885.359131,555.387146 888.424805,552.672546 891.886047,550.788818 
	C898.973999,546.931274 902.117188,547.327759 907.575684,553.234863 
	C910.101624,555.968506 911.929077,559.347595 914.307373,562.734009 
z"/>
<path fill="#FE3132" opacity="1.000000" stroke="none" 
	d="
M473.259399,460.781860 
	C477.010132,469.187561 480.423157,477.329987 484.120239,485.341339 
	C493.101257,504.802704 502.214325,524.203064 511.523438,544.162354 
	C516.734131,533.033447 521.843872,522.330688 526.772949,511.545319 
	C535.023193,493.492889 543.156799,475.387146 551.343262,457.305603 
	C552.764343,454.166840 554.139954,451.005341 555.648010,447.908569 
	C559.747986,439.489349 564.001160,437.161133 572.685913,440.248474 
	C578.118225,442.179596 583.180359,445.486115 587.954773,448.824524 
	C591.538208,451.330109 592.215881,457.265350 589.943665,461.994904 
	C582.855042,476.749420 575.620911,491.434387 568.388306,506.119232 
	C556.294250,530.674500 543.987549,555.127380 532.157349,579.808716 
	C529.156433,586.069397 526.268188,591.600403 519.292908,594.339600 
	C508.870789,598.432312 497.552216,594.049072 492.157410,583.088135 
	C476.414642,551.102539 460.743164,519.081909 445.027893,487.082825 
	C441.412903,479.722076 437.610291,472.450989 434.115906,465.034088 
	C429.606018,455.461670 431.549500,449.641510 440.912689,444.653412 
	C444.648651,442.663147 448.521851,440.772888 452.545227,439.520355 
	C457.369568,438.018555 461.774109,439.292419 464.399078,443.949921 
	C467.448181,449.359863 470.180908,454.948151 473.259399,460.781860 
z"/>
<path fill="#FF3636" opacity="1.000000" stroke="none" 
	d="
M242.620575,597.385864 
	C235.861191,590.695374 229.351639,584.255493 222.181000,577.161560 
	C226.635742,572.830811 230.795059,568.611511 235.160492,564.617493 
	C237.337982,562.625305 237.754852,560.747437 236.545868,558.039673 
	C234.041855,552.431335 232.070038,546.570679 229.316071,541.097168 
	C228.436401,539.348877 225.858139,537.567505 223.922424,537.404968 
	C218.148483,536.920166 212.307724,537.230896 206.241730,537.230896 
	C206.241730,524.988159 206.241730,513.073303 206.241730,500.770172 
	C212.157425,500.770172 217.972397,500.654053 223.779572,500.816437 
	C226.942398,500.904907 228.563202,499.650635 229.634201,496.672058 
	C231.654617,491.053009 233.931015,485.512177 236.396942,480.072968 
	C237.622528,477.369690 237.368271,475.487122 235.182037,473.463501 
	C232.007645,470.525177 229.074051,467.326385 226.043533,464.233032 
	C223.728119,461.869598 223.227585,459.862183 226.089951,457.173279 
	C233.727997,449.998077 241.063553,442.500885 249.126816,434.531189 
	C253.105881,438.773193 257.220520,442.899078 261.014282,447.301453 
	C263.307037,449.961975 265.421539,449.877930 268.370514,448.506378 
	C273.482269,446.128906 278.734070,444.014771 284.042480,442.112152 
	C287.171722,440.990601 288.529236,439.286133 288.402466,435.891815 
	C288.186340,430.104614 288.342926,424.303497 288.342926,418.252747 
	C300.720947,418.252747 312.618500,418.252747 325.013123,418.252747 
	C325.013123,424.339386 325.157166,430.292603 324.955353,436.234100 
	C324.846252,439.446564 326.118469,440.957184 329.096649,442.020386 
	C334.874634,444.083099 340.429169,446.778473 346.226410,448.775909 
	C347.790405,449.314758 350.510315,448.937408 351.641052,447.864716 
	C356.090240,443.644012 360.117340,438.978424 364.086426,434.708923 
	C373.284088,443.972748 381.696747,452.445892 390.389709,461.201355 
	C386.764130,464.855988 382.691467,469.155609 378.392426,473.215546 
	C376.126953,475.354980 375.632935,477.262085 377.023315,480.200531 
	C379.577148,485.598022 381.894745,491.133575 383.879211,496.763672 
	C384.969696,499.857574 386.742889,500.871613 389.782837,500.801117 
	C394.277649,500.696838 398.777832,500.851166 403.274841,500.805725 
	C406.118042,500.777008 407.459900,501.828522 407.423828,504.909088 
	C407.301086,515.395203 407.376892,525.883728 407.376892,537.229126 
	C401.445190,537.229126 395.683838,537.399719 389.939087,537.164734 
	C386.528381,537.025208 384.968536,538.278137 383.865234,541.529968 
	C382.058777,546.854126 379.868225,552.098328 377.291504,557.093506 
	C375.492340,560.581299 376.069946,562.746887 378.898285,565.234741 
	C383.131195,568.958130 387.013855,573.079651 390.955292,576.943420 
	C382.092194,585.736145 373.593414,594.167358 364.700104,602.990051 
	C360.779053,599.064941 356.472809,594.974487 352.440521,590.629761 
	C350.246552,588.265808 348.223816,588.161316 345.421783,589.426270 
	C340.130371,591.815308 334.736908,594.005371 329.283661,595.998535 
	C326.204529,597.124023 324.768402,598.737793 324.938507,602.203613 
	C325.214325,607.822937 325.012848,613.465698 325.012848,619.379883 
	C312.714111,619.379883 300.819061,619.379883 288.341309,619.379883 
	C288.341309,613.503906 288.178955,607.883484 288.399658,602.278137 
	C288.541504,598.675537 287.079956,596.956543 283.718689,595.786743 
	C278.239929,593.880066 272.856903,591.619873 267.630524,589.100159 
	C265.053650,587.857727 263.427856,588.117859 261.525543,590.108643 
	C257.387817,594.438660 253.079041,598.605286 247.988922,603.688843 
	C246.235199,601.615173 244.552811,599.625854 242.620575,597.385864 
M374.761383,572.738403 
	C373.199799,571.008850 371.563660,569.340027 370.092621,567.536621 
	C367.299744,564.112488 367.006714,560.354431 368.730804,556.319458 
	C371.534607,549.757507 374.287262,543.173218 377.011292,536.577698 
	C379.075623,531.579285 382.676025,528.938721 388.163300,528.990112 
	C391.794220,529.024109 395.425720,528.996582 399.177856,528.996582 
	C399.177856,522.119385 399.177856,515.745422 399.177856,509.001648 
	C395.706757,509.001648 392.563599,508.993134 389.420532,509.003448 
	C383.071106,509.024292 378.717560,506.315216 376.424957,500.172150 
	C374.219208,494.261627 371.712372,488.457428 369.168610,482.681000 
	C366.815948,477.338531 367.397675,472.577820 371.674042,468.549194 
	C374.331512,466.045715 377.248871,463.818085 379.070648,462.288513 
	C373.684174,456.590820 369.178253,451.824524 364.174408,446.531525 
	C362.046753,448.883759 359.911926,451.441376 357.569519,453.792145 
	C352.745453,458.633331 348.903076,459.143158 342.750702,456.428223 
	C336.829041,453.815125 330.822662,451.382751 324.787018,449.042542 
	C319.565063,447.017853 317.097473,443.803192 317.006866,438.171875 
	C316.943420,434.228760 316.994659,430.283813 316.994659,426.258240 
	C310.015350,426.258240 303.596222,426.258240 296.718658,426.258240 
	C296.718658,429.957977 296.759430,433.418182 296.709442,436.877075 
	C296.627228,442.567139 294.276703,446.731934 288.767365,448.933228 
	C281.982086,451.644379 275.288208,454.584442 268.501923,457.292969 
	C264.439606,458.914276 260.536560,458.326904 257.453339,455.158264 
	C254.673157,452.301086 252.242020,449.104340 249.744400,446.160431 
	C244.139679,451.798187 239.530624,456.434418 234.211456,461.784973 
	C236.394348,463.653168 238.811691,465.450409 240.906448,467.566956 
	C246.628143,473.348236 247.055634,476.096588 243.865280,483.648529 
	C241.538895,489.155426 239.030304,494.597565 236.986786,500.208374 
	C234.805588,506.197174 230.609650,508.880829 224.475388,508.971680 
	C221.045654,509.022522 217.614532,508.980774 214.307922,508.980774 
	C214.307922,516.094666 214.307922,522.505981 214.307922,529.147217 
	C217.467026,529.147217 220.289429,529.226501 223.105972,529.131653 
	C230.320618,528.888672 235.099197,532.014832 237.604858,538.896973 
	C239.649567,544.512939 241.886414,550.077698 244.390976,555.502319 
	C246.916504,560.972290 245.758011,565.481873 241.751007,569.595581 
	C239.257446,572.155579 236.773514,574.724854 234.739075,576.822144 
	C239.683365,581.867554 244.194061,586.470581 249.209961,591.589050 
	C251.115051,589.460876 253.095078,587.218750 255.107910,585.006470 
	C259.884918,579.756165 265.315338,578.866638 271.764374,581.984314 
	C276.689575,584.365295 281.821564,586.393127 287.009827,588.136963 
	C293.835602,590.431152 296.850281,595.055542 296.728210,602.059204 
	C296.673981,605.169189 296.719086,608.280945 296.719086,611.524658 
	C303.763580,611.524658 310.166046,611.524658 316.994110,611.524658 
	C316.994110,607.926636 316.984100,604.628357 316.996155,601.330200 
	C317.022369,594.158752 318.756653,591.594666 325.399719,588.820923 
	C331.526398,586.262756 337.661987,583.725037 343.765747,581.113098 
	C348.742584,578.983276 353.238434,579.415588 356.874298,583.655579 
	C359.343994,586.535645 361.546478,589.644836 363.435059,592.090332 
	C369.666809,586.255005 374.378693,581.842773 379.757080,576.806519 
	C378.115784,575.504089 376.691132,574.373535 374.761383,572.738403 
z"/>
<path fill="#FFFCFC" opacity="1.000000" stroke="none" 
	d="
M643.997559,529.045898 
	C643.997559,525.431580 643.997559,522.308289 643.997559,519.184998 
	C644.226746,519.188049 644.455872,519.191101 644.685059,519.194153 
	C644.685059,539.065002 644.685059,558.935852 644.685059,578.806641 
	C644.455872,578.809875 644.226746,578.813049 643.997559,578.816284 
	C643.997559,562.389771 643.997559,545.963318 643.997559,529.045898 
z"/>
<path fill="#FFFCFC" opacity="1.000000" stroke="none" 
	d="
M375.013916,572.990723 
	C376.691132,574.373535 378.115784,575.504089 379.757080,576.806519 
	C374.378693,581.842773 369.666809,586.255005 363.435059,592.090332 
	C361.546478,589.644836 359.343994,586.535645 356.874298,583.655579 
	C353.238434,579.415588 348.742584,578.983276 343.765747,581.113098 
	C337.661987,583.725037 331.526398,586.262756 325.399719,588.820923 
	C318.756653,591.594666 317.022369,594.158752 316.996155,601.330200 
	C316.984100,604.628357 316.994110,607.926636 316.994110,611.524658 
	C310.166046,611.524658 303.763580,611.524658 296.719086,611.524658 
	C296.719086,608.280945 296.673981,605.169189 296.728210,602.059204 
	C296.850281,595.055542 293.835602,590.431152 287.009827,588.136963 
	C281.821564,586.393127 276.689575,584.365295 271.764374,581.984314 
	C265.315338,578.866638 259.884918,579.756165 255.107910,585.006470 
	C253.095078,587.218750 251.115051,589.460876 249.209961,591.589050 
	C244.194061,586.470581 239.683365,581.867554 234.739075,576.822144 
	C236.773514,574.724854 239.257446,572.155579 241.751007,569.595581 
	C245.758011,565.481873 246.916504,560.972290 244.390976,555.502319 
	C241.886414,550.077698 239.649567,544.512939 237.604858,538.896973 
	C235.099197,532.014832 230.320618,528.888672 223.105972,529.131653 
	C220.289429,529.226501 217.467026,529.147217 214.307922,529.147217 
	C214.307922,522.505981 214.307922,516.094666 214.307922,508.980774 
	C217.614532,508.980774 221.045654,509.022522 224.475388,508.971680 
	C230.609650,508.880829 234.805588,506.197174 236.986786,500.208374 
	C239.030304,494.597565 241.538895,489.155426 243.865280,483.648529 
	C247.055634,476.096588 246.628143,473.348236 240.906448,467.566956 
	C238.811691,465.450409 236.394348,463.653168 234.211456,461.784973 
	C239.530624,456.434418 244.139679,451.798187 249.744400,446.160431 
	C252.242020,449.104340 254.673157,452.301086 257.453339,455.158264 
	C260.536560,458.326904 264.439606,458.914276 268.501923,457.292969 
	C275.288208,454.584442 281.982086,451.644379 288.767365,448.933228 
	C294.276703,446.731934 296.627228,442.567139 296.709442,436.877075 
	C296.759430,433.418182 296.718658,429.957977 296.718658,426.258240 
	C303.596222,426.258240 310.015350,426.258240 316.994659,426.258240 
	C316.994659,430.283813 316.943420,434.228760 317.006866,438.171875 
	C317.097473,443.803192 319.565063,447.017853 324.787018,449.042542 
	C330.822662,451.382751 336.829041,453.815125 342.750702,456.428223 
	C348.903076,459.143158 352.745453,458.633331 357.569519,453.792145 
	C359.911926,451.441376 362.046753,448.883759 364.174408,446.531525 
	C369.178253,451.824524 373.684174,456.590820 379.070648,462.288513 
	C377.248871,463.818085 374.331512,466.045715 371.674042,468.549194 
	C367.397675,472.577820 366.815948,477.338531 369.168610,482.681000 
	C371.712372,488.457428 374.219208,494.261627 376.424957,500.172150 
	C378.717560,506.315216 383.071106,509.024292 389.420532,509.003448 
	C392.563599,508.993134 395.706757,509.001648 399.177856,509.001648 
	C399.177856,515.745422 399.177856,522.119385 399.177856,528.996582 
	C395.425720,528.996582 391.794220,529.024109 388.163300,528.990112 
	C382.676025,528.938721 379.075623,531.579285 377.011292,536.577698 
	C374.287262,543.173218 371.534607,549.757507 368.730804,556.319458 
	C367.006714,560.354431 367.299744,564.112488 370.092621,567.536621 
	C371.563660,569.340027 373.199799,571.008850 375.013916,572.990723 
M272.559265,470.025482 
	C256.897675,481.368011 248.233932,496.706421 247.084137,515.977173 
	C245.079483,549.575623 273.629181,582.241699 313.275543,578.114624 
	C346.849030,574.619690 372.018677,541.826599 365.665375,509.339874 
	C357.081818,465.449371 310.942047,445.633575 272.559265,470.025482 
z"/>
<path fill="#FF3737" opacity="1.000000" stroke="none" 
	d="
M272.849609,469.814087 
	C310.942047,445.633575 357.081818,465.449371 365.665375,509.339874 
	C372.018677,541.826599 346.849030,574.619690 313.275543,578.114624 
	C273.629181,582.241699 245.079483,549.575623 247.084137,515.977173 
	C248.233932,496.706421 256.897675,481.368011 272.849609,469.814087 
M333.929260,562.561279 
	C353.363190,549.350464 361.681488,529.360413 356.921051,507.308746 
	C351.136932,480.515289 322.760315,462.309937 296.192474,468.347717 
	C267.781555,474.804321 249.834213,502.826904 256.496094,530.328796 
	C264.874207,564.915894 301.717377,580.557678 333.929260,562.561279 
z"/>
<path fill="#FFFDFD" opacity="1.000000" stroke="none" 
	d="
M333.611481,562.747314 
	C301.717377,580.557678 264.874207,564.915894 256.496094,530.328796 
	C249.834213,502.826904 267.781555,474.804321 296.192474,468.347717 
	C322.760315,462.309937 351.136932,480.515289 356.921051,507.308746 
	C361.681488,529.360413 353.363190,549.350464 333.611481,562.747314 
M285.293427,522.197998 
	C283.861633,520.579895 282.426025,518.965027 280.998962,517.342773 
	C279.184875,515.280701 277.158081,513.916138 274.593994,516.064697 
	C272.114746,518.142151 272.730072,520.406921 274.556702,522.591248 
	C279.887665,528.965820 285.224548,535.335449 290.554596,541.710754 
	C292.963745,544.592468 295.467377,544.781128 298.166626,542.078247 
	C311.442841,528.783936 324.734283,515.504883 338.015259,502.215332 
	C340.250641,499.978516 341.417236,497.439423 338.824707,494.841461 
	C336.155731,492.166840 334.048340,494.173767 332.077850,496.147491 
	C321.622742,506.619873 311.138519,517.063416 300.721863,527.573975 
	C298.885773,529.426636 297.321838,531.549072 295.454620,533.756958 
	C291.664032,529.441467 288.714630,526.083618 285.293427,522.197998 
z"/>
<path fill="#FF3737" opacity="1.000000" stroke="none" 
	d="
M285.529327,522.461914 
	C288.714630,526.083618 291.664032,529.441467 295.454620,533.756958 
	C297.321838,531.549072 298.885773,529.426636 300.721863,527.573975 
	C311.138519,517.063416 321.622742,506.619873 332.077850,496.147491 
	C334.048340,494.173767 336.155731,492.166840 338.824707,494.841461 
	C341.417236,497.439423 340.250641,499.978516 338.015259,502.215332 
	C324.734283,515.504883 311.442841,528.783936 298.166626,542.078247 
	C295.467377,544.781128 292.963745,544.592468 290.554596,541.710754 
	C285.224548,535.335449 279.887665,528.965820 274.556702,522.591248 
	C272.730072,520.406921 272.114746,518.142151 274.593994,516.064697 
	C277.158081,513.916138 279.184875,515.280701 280.998962,517.342773 
	C282.426025,518.965027 283.861633,520.579895 285.529327,522.461914 
z"/>
</svg>